<?xml version="1.0"?>
<!-- Generated by SVGo -->
<svg width="310.002mm" height="100.002mm"
     viewBox="0.000 0.000 310.002 100.002"
     xmlns="http://www.w3.org/2000/svg" 
     xmlns:xlink="http://www.w3.org/1999/xlink">
<polygon points="150.000,10.001 15.001,10.001 15.001,90.002 295.002,90.002 295.002,10.001 160.000,10.001 160.000,5.001 300.002,5.001 300.394,5.016 300.784,5.062 301.169,5.139 301.547,5.245 301.915,5.381 302.271,5.545 302.614,5.737 302.940,5.955 303.249,6.198 303.537,6.465 303.804,6.753 304.047,7.062 304.265,7.388 304.457,7.731 304.621,8.087 304.757,8.455 304.863,8.833 304.940,9.218 304.986,9.608 305.001,10.001 305.002,90.002 304.986,90.394 304.940,90.784 304.863,91.169 304.757,91.547 304.621,91.915 304.457,92.271 304.265,92.614 304.047,92.940 303.804,93.249 303.537,93.537 303.249,93.804 302.940,94.047 302.614,94.265 302.271,94.457 301.915,94.621 301.547,94.757 301.169,94.863 300.784,94.940 300.394,94.986 300.002,95.002 10.001,95.002 9.608,94.986 9.218,94.940 8.833,94.863 8.455,94.757 8.087,94.621 7.731,94.457 7.388,94.265 7.062,94.047 6.753,93.804 6.465,93.537 6.198,93.249 5.955,92.940 5.737,92.614 5.545,92.271 5.381,91.915 5.245,91.547 5.139,91.169 5.062,90.784 5.016,90.394 5.000,90.001 5.001,10.001 5.016,9.608 5.062,9.218 5.139,8.833 5.245,8.455 5.381,8.087 5.545,7.731 5.737,7.388 5.955,7.062 6.198,6.753 6.465,6.465 6.753,6.198 7.062,5.955 7.388,5.737 7.731,5.545 8.087,5.381 8.455,5.245 8.833,5.139 9.218,5.062 9.608,5.016 10.001,5.000 150.000,5.000" style="fill:none;stroke-width:0.050000mm;stroke:red"/>
<polygon points="299.538,88.575 299.120,88.788 298.788,89.120 298.575,89.538 298.502,90.002 298.575,90.465 298.788,90.883 299.120,91.215 299.538,91.428 300.002,91.502 300.465,91.428 300.883,91.215 301.215,90.883 301.428,90.465 301.501,90.002 301.428,89.538 301.215,89.120 300.883,88.788 300.465,88.575 300.002,88.502" style="fill:none;stroke-width:0.050000mm;stroke:red"/>
<polygon points="9.537,88.575 9.119,88.788 8.787,89.120 8.574,89.538 8.501,90.002 8.574,90.465 8.787,90.883 9.119,91.215 9.537,91.428 10.001,91.502 10.464,91.428 10.882,91.215 11.214,90.883 11.427,90.465 11.501,90.002 11.427,89.538 11.214,89.120 10.882,88.788 10.464,88.575 10.001,88.502" style="fill:none;stroke-width:0.050000mm;stroke:red"/>
<polygon points="299.538,8.574 299.120,8.787 298.788,9.119 298.575,9.537 298.502,10.001 298.575,10.464 298.788,10.882 299.120,11.214 299.538,11.427 300.002,11.501 300.465,11.427 300.883,11.214 301.215,10.882 301.428,10.464 301.501,10.001 301.428,9.537 301.215,9.119 300.883,8.787 300.465,8.574 300.002,8.501" style="fill:none;stroke-width:0.050000mm;stroke:red"/>
<polygon points="9.537,8.574 9.119,8.787 8.787,9.119 8.574,9.537 8.501,10.001 8.574,10.464 8.787,10.882 9.119,11.214 9.537,11.427 10.001,11.501 10.464,11.427 10.882,11.214 11.214,10.882 11.427,10.464 11.501,10.001 11.427,9.537 11.214,9.119 10.882,8.787 10.464,8.574 10.001,8.501" style="fill:none;stroke-width:0.050000mm;stroke:red"/>
</svg>
