<?xml version="1.0"?>
<!-- Generated by SVGo -->
<svg width="310.002mm" height="100.002mm"
     viewBox="0.000 0.000 310.002 100.002"
     xmlns="http://www.w3.org/2000/svg" 
     xmlns:xlink="http://www.w3.org/1999/xlink">
<polygon points="300.002,5.001 300.394,5.016 300.784,5.062 301.169,5.139 301.547,5.245 301.915,5.381 302.271,5.545 302.614,5.737 302.940,5.955 303.249,6.198 303.537,6.465 303.804,6.753 304.047,7.062 304.265,7.388 304.457,7.731 304.621,8.087 304.757,8.455 304.863,8.833 304.940,9.218 304.986,9.608 305.001,10.001 305.002,90.002 304.986,90.394 304.940,90.784 304.863,91.169 304.757,91.547 304.621,91.915 304.457,92.271 304.265,92.614 304.047,92.940 303.804,93.249 303.537,93.537 303.249,93.804 302.940,94.047 302.614,94.265 302.271,94.457 301.915,94.621 301.547,94.757 301.169,94.863 300.784,94.940 300.394,94.986 300.002,95.002 10.001,95.002 9.608,94.986 9.218,94.940 8.833,94.863 8.455,94.757 8.087,94.621 7.731,94.457 7.388,94.265 7.062,94.047 6.753,93.804 6.465,93.537 6.198,93.249 5.955,92.940 5.737,92.614 5.545,92.271 5.381,91.915 5.245,91.547 5.139,91.169 5.062,90.784 5.016,90.394 5.000,90.001 5.001,10.001 5.016,9.608 5.062,9.218 5.139,8.833 5.245,8.455 5.381,8.087 5.545,7.731 5.737,7.388 5.955,7.062 6.198,6.753 6.465,6.465 6.753,6.198 7.062,5.955 7.388,5.737 7.731,5.545 8.087,5.381 8.455,5.245 8.833,5.139 9.218,5.062 9.608,5.016 10.001,5.000" style="fill:none;stroke-width:0.050000mm;stroke:red"/>
<polygon points="299.538,88.575 299.120,88.788 298.788,89.120 298.575,89.538 298.502,90.002 298.575,90.465 298.788,90.883 299.120,91.215 299.538,91.428 300.002,91.502 300.465,91.428 300.883,91.215 301.215,90.883 301.428,90.465 301.501,90.002 301.428,89.538 301.215,89.120 300.883,88.788 300.465,88.575 300.002,88.502" style="fill:none;stroke-width:0.050000mm;stroke:red"/>
<polygon points="9.537,88.575 9.119,88.788 8.787,89.120 8.574,89.538 8.501,90.002 8.574,90.465 8.787,90.883 9.119,91.215 9.537,91.428 10.001,91.502 10.464,91.428 10.882,91.215 11.214,90.883 11.427,90.465 11.501,90.002 11.427,89.538 11.214,89.120 10.882,88.788 10.464,88.575 10.001,88.502" style="fill:none;stroke-width:0.050000mm;stroke:red"/>
<polygon points="268.001,73.001 268.001,87.001 282.001,87.001 282.001,73.001" style="fill:none;stroke-width:0.050000mm;stroke:red"/>
<polygon points="248.001,73.001 248.001,87.001 262.001,87.001 262.001,73.001" style="fill:none;stroke-width:0.050000mm;stroke:red"/>
<polygon points="228.001,73.001 228.001,87.001 242.001,87.001 242.001,73.001" style="fill:none;stroke-width:0.050000mm;stroke:red"/>
<polygon points="208.001,73.001 208.001,87.001 222.001,87.001 222.001,73.001" style="fill:none;stroke-width:0.050000mm;stroke:red"/>
<polygon points="185.501,73.001 185.501,87.001 199.501,87.001 199.501,73.001" style="fill:none;stroke-width:0.050000mm;stroke:red"/>
<polygon points="160.501,73.001 160.501,87.001 174.501,87.001 174.501,73.001" style="fill:none;stroke-width:0.050000mm;stroke:red"/>
<polygon points="135.501,73.001 135.501,87.001 149.501,87.001 149.501,73.001" style="fill:none;stroke-width:0.050000mm;stroke:red"/>
<polygon points="110.501,73.001 110.501,87.001 124.501,87.001 124.501,73.001" style="fill:none;stroke-width:0.050000mm;stroke:red"/>
<polygon points="88.001,73.001 88.001,87.001 102.001,87.001 102.001,73.001" style="fill:none;stroke-width:0.050000mm;stroke:red"/>
<polygon points="68.001,73.001 68.001,87.001 82.001,87.001 82.001,73.001" style="fill:none;stroke-width:0.050000mm;stroke:red"/>
<polygon points="48.001,73.001 48.001,87.001 62.001,87.001 62.001,73.001" style="fill:none;stroke-width:0.050000mm;stroke:red"/>
<polygon points="28.001,73.001 28.001,87.001 42.001,87.001 42.001,73.001" style="fill:none;stroke-width:0.050000mm;stroke:red"/>
<polygon points="278.001,53.001 278.001,67.001 292.001,67.001 292.001,53.001" style="fill:none;stroke-width:0.050000mm;stroke:red"/>
<polygon points="258.001,53.001 258.001,67.001 272.001,67.001 272.001,53.001" style="fill:none;stroke-width:0.050000mm;stroke:red"/>
<polygon points="238.001,53.001 238.001,67.001 252.001,67.001 252.001,53.001" style="fill:none;stroke-width:0.050000mm;stroke:red"/>
<polygon points="218.001,53.001 218.001,67.001 232.001,67.001 232.001,53.001" style="fill:none;stroke-width:0.050000mm;stroke:red"/>
<polygon points="198.001,53.001 198.001,67.001 212.001,67.001 212.001,53.001" style="fill:none;stroke-width:0.050000mm;stroke:red"/>
<polygon points="178.001,53.001 178.001,67.001 192.001,67.001 192.001,53.001" style="fill:none;stroke-width:0.050000mm;stroke:red"/>
<polygon points="158.001,53.001 158.001,67.001 172.001,67.001 172.001,53.001" style="fill:none;stroke-width:0.050000mm;stroke:red"/>
<polygon points="138.001,53.001 138.001,67.001 152.001,67.001 152.001,53.001" style="fill:none;stroke-width:0.050000mm;stroke:red"/>
<polygon points="118.001,53.001 118.001,67.001 132.001,67.001 132.001,53.001" style="fill:none;stroke-width:0.050000mm;stroke:red"/>
<polygon points="98.001,53.001 98.001,67.001 112.001,67.001 112.001,53.001" style="fill:none;stroke-width:0.050000mm;stroke:red"/>
<polygon points="78.001,53.001 78.001,67.001 92.001,67.001 92.001,53.001" style="fill:none;stroke-width:0.050000mm;stroke:red"/>
<polygon points="58.001,53.001 58.001,67.001 72.001,67.001 72.001,53.001" style="fill:none;stroke-width:0.050000mm;stroke:red"/>
<polygon points="38.001,53.001 38.001,67.001 52.001,67.001 52.001,53.001" style="fill:none;stroke-width:0.050000mm;stroke:red"/>
<polygon points="18.001,53.001 18.001,67.001 32.001,67.001 32.001,53.001" style="fill:none;stroke-width:0.050000mm;stroke:red"/>
<polygon points="273.001,33.001 273.001,47.001 287.001,47.001 287.001,33.001" style="fill:none;stroke-width:0.050000mm;stroke:red"/>
<polygon points="248.001,33.001 248.001,47.001 262.001,47.001 262.001,33.001" style="fill:none;stroke-width:0.050000mm;stroke:red"/>
<polygon points="228.001,33.001 228.001,47.001 242.001,47.001 242.001,33.001" style="fill:none;stroke-width:0.050000mm;stroke:red"/>
<polygon points="208.001,33.001 208.001,47.001 222.001,47.001 222.001,33.001" style="fill:none;stroke-width:0.050000mm;stroke:red"/>
<polygon points="188.001,33.001 188.001,47.001 202.001,47.001 202.001,33.001" style="fill:none;stroke-width:0.050000mm;stroke:red"/>
<polygon points="168.001,33.001 168.001,47.001 182.001,47.001 182.001,33.001" style="fill:none;stroke-width:0.050000mm;stroke:red"/>
<polygon points="148.001,33.001 148.001,47.001 162.001,47.001 162.001,33.001" style="fill:none;stroke-width:0.050000mm;stroke:red"/>
<polygon points="128.001,33.001 128.001,47.001 142.001,47.001 142.001,33.001" style="fill:none;stroke-width:0.050000mm;stroke:red"/>
<polygon points="108.001,33.001 108.001,47.001 122.001,47.001 122.001,33.001" style="fill:none;stroke-width:0.050000mm;stroke:red"/>
<polygon points="88.001,33.001 88.001,47.001 102.001,47.001 102.001,33.001" style="fill:none;stroke-width:0.050000mm;stroke:red"/>
<polygon points="68.001,33.001 68.001,47.001 82.001,47.001 82.001,33.001" style="fill:none;stroke-width:0.050000mm;stroke:red"/>
<polygon points="48.001,33.001 48.001,47.001 62.001,47.001 62.001,33.001" style="fill:none;stroke-width:0.050000mm;stroke:red"/>
<polygon points="23.001,33.001 23.001,47.001 37.001,47.001 37.001,33.001" style="fill:none;stroke-width:0.050000mm;stroke:red"/>
<polygon points="278.001,13.001 278.001,27.001 292.001,27.001 292.001,13.001" style="fill:none;stroke-width:0.050000mm;stroke:red"/>
<polygon points="258.001,13.001 258.001,27.001 272.001,27.001 272.001,13.001" style="fill:none;stroke-width:0.050000mm;stroke:red"/>
<polygon points="238.001,13.001 238.001,27.001 252.001,27.001 252.001,13.001" style="fill:none;stroke-width:0.050000mm;stroke:red"/>
<polygon points="218.001,13.001 218.001,27.001 232.001,27.001 232.001,13.001" style="fill:none;stroke-width:0.050000mm;stroke:red"/>
<polygon points="198.001,13.001 198.001,27.001 212.001,27.001 212.001,13.001" style="fill:none;stroke-width:0.050000mm;stroke:red"/>
<polygon points="178.001,13.001 178.001,27.001 192.001,27.001 192.001,13.001" style="fill:none;stroke-width:0.050000mm;stroke:red"/>
<polygon points="158.001,13.001 158.001,27.001 172.001,27.001 172.001,13.001" style="fill:none;stroke-width:0.050000mm;stroke:red"/>
<polygon points="138.001,13.001 138.001,27.001 152.001,27.001 152.001,13.001" style="fill:none;stroke-width:0.050000mm;stroke:red"/>
<polygon points="118.001,13.001 118.001,27.001 132.001,27.001 132.001,13.001" style="fill:none;stroke-width:0.050000mm;stroke:red"/>
<polygon points="98.001,13.001 98.001,27.001 112.001,27.001 112.001,13.001" style="fill:none;stroke-width:0.050000mm;stroke:red"/>
<polygon points="78.001,13.001 78.001,27.001 92.001,27.001 92.001,13.001" style="fill:none;stroke-width:0.050000mm;stroke:red"/>
<polygon points="58.001,13.001 58.001,27.001 72.001,27.001 72.001,13.001" style="fill:none;stroke-width:0.050000mm;stroke:red"/>
<polygon points="38.001,13.001 38.001,27.001 52.001,27.001 52.001,13.001" style="fill:none;stroke-width:0.050000mm;stroke:red"/>
<polygon points="18.001,13.001 18.001,27.001 32.001,27.001 32.001,13.001" style="fill:none;stroke-width:0.050000mm;stroke:red"/>
<polygon points="299.538,8.574 299.120,8.787 298.788,9.119 298.575,9.537 298.502,10.001 298.575,10.464 298.788,10.882 299.120,11.214 299.538,11.427 300.002,11.501 300.465,11.427 300.883,11.214 301.215,10.882 301.428,10.464 301.501,10.001 301.428,9.537 301.215,9.119 300.883,8.787 300.465,8.574 300.002,8.501" style="fill:none;stroke-width:0.050000mm;stroke:red"/>
<polygon points="9.537,8.574 9.119,8.787 8.787,9.119 8.574,9.537 8.501,10.001 8.574,10.464 8.787,10.882 9.119,11.214 9.537,11.427 10.001,11.501 10.464,11.427 10.882,11.214 11.214,10.882 11.427,10.464 11.501,10.001 11.427,9.537 11.214,9.119 10.882,8.787 10.464,8.574 10.001,8.501" style="fill:none;stroke-width:0.050000mm;stroke:red"/>
</svg>
